<svg width="1080" height="1080" viewBox="0 0 1080 1080" fill="none" xmlns="http://www.w3.org/2000/svg">
<g clip-path="url(#clip0_2923_519)">
<rect width="1080" height="1080" fill="#FF5500"/>
<path d="M778.091 134.275L945.382 -33.0156C721.306 -257.092 358.035 -257.091 133.959 -33.0155L301.278 134.304C432.948 2.6339 646.407 2.61971 778.077 134.29L778.091 134.275Z" fill="white"/>
<path d="M133.987 1113.02C358.063 1337.09 721.334 1337.09 945.41 1113.02L778.091 945.698C646.421 1077.37 432.962 1077.38 301.292 945.713L133.987 1113.02Z" fill="white"/>
<path d="M778.091 134.275C646.421 265.945 432.962 265.96 301.292 134.29L134.001 301.581C265.657 433.236 265.657 646.709 134.001 778.365C2.33138 646.695 2.33141 433.251 134.001 301.581L-33.318 134.261C-257.394 358.337 -257.394 721.608 -33.3181 945.684L133.973 778.393L301.292 945.713C432.962 814.043 646.421 814.029 778.091 945.698L945.382 778.407C813.726 646.752 813.74 433.293 945.382 301.623C1077.05 433.293 1077.05 646.737 945.382 778.407L1112.7 945.727C1336.75 721.679 1336.76 358.394 1112.69 134.318L945.41 301.595L778.091 134.275ZM464.404 615.267C470.955 565.316 470.969 514.672 464.404 464.707C514.356 471.286 564.999 471.272 614.965 464.707C608.385 514.658 608.371 565.33 614.965 615.267C564.999 608.702 514.328 608.688 464.404 615.267Z" fill="white"/>
</g>
<defs>
<clipPath id="clip0_2923_519">
<rect width="1080" height="1080" fill="white"/>
</clipPath>
</defs>
</svg>
