<svg width="1080" height="1080" viewBox="0 0 1080 1080" fill="none" xmlns="http://www.w3.org/2000/svg">
<g clip-path="url(#clip0_2923_523)">
<rect width="1080" height="1080" fill="#FF5500"/>
<path d="M496.56 239.207V-56.7691C496.56 -83.9884 465.489 -99.9351 443.492 -83.851C274.942 38.4987 106.391 160.986 -62.1596 283.336C-84.7063 299.695 -79.757 334.888 -53.6358 344.373C37.2385 377.504 128.113 410.497 218.987 443.628C257.482 457.65 300.513 451.326 333.371 426.856C370.215 399.362 407.06 371.867 443.905 344.236C477.037 319.491 496.56 280.586 496.56 239.207Z" fill="white"/>
<path d="M1127.32 275.775C962.205 155.899 797.229 36.0243 632.115 -83.851C610.118 -99.9351 579.048 -83.9884 579.048 -56.7691V241.819C579.048 282.923 598.982 321.69 632.665 345.335C667.172 369.805 701.68 394.138 736.325 418.608C769.87 442.39 813.039 448.164 851.671 434.005C940.62 401.561 1029.71 369.255 1118.66 336.812C1144.92 327.327 1149.86 292.134 1127.18 275.775H1127.32Z" fill="white"/>
<path d="M197.815 523.773C104.879 489.955 11.9422 456.137 -80.9944 422.319C-106.016 413.246 -130.625 437.029 -122.376 462.324C-57.6227 661.795 7.26787 861.266 72.021 1060.74C80.4073 1086.44 114.502 1091.53 130.038 1069.4C186.404 988.84 242.909 908.281 299.276 827.723C322.922 793.905 329.109 750.739 315.911 711.697C304.225 677.329 292.539 642.961 280.853 608.593C267.518 569.277 236.997 538.07 197.953 523.911L197.815 523.773Z" fill="white"/>
<path d="M799.566 596.358C788.43 632.376 777.156 668.394 766.02 704.411C753.785 744.003 760.521 787.032 784.305 820.987C839.435 899.758 894.564 978.392 949.694 1057.16C965.092 1079.3 999.324 1074.07 1007.71 1048.5C1072.6 848.756 1137.49 649.01 1202.38 449.126C1210.63 423.832 1185.88 400.049 1161 409.122C1067.65 443.078 974.303 477.171 880.816 511.126C841.909 525.286 811.801 556.767 799.566 596.358Z" fill="white"/>
<path d="M630.465 837.209C630.465 837.209 629.365 837.209 628.815 837.209C571.349 838.034 514.019 838.721 456.553 839.408C415.309 839.958 376.814 860.304 353.168 894.122C301.2 968.357 249.233 1042.59 197.265 1116.83C181.455 1139.37 197.678 1170.71 225.311 1170.71H862.944C890.578 1170.71 906.8 1139.51 890.99 1116.83C838.06 1041.22 785.13 965.745 732.2 890.135C708.966 856.867 670.884 837.209 630.465 837.209Z" fill="white"/>
</g>
<defs>
<clipPath id="clip0_2923_523">
<rect width="1080" height="1080" fill="white"/>
</clipPath>
</defs>
</svg>
