<svg width="1080" height="1080" viewBox="0 0 1080 1080" fill="none" xmlns="http://www.w3.org/2000/svg">
<g clip-path="url(#clip0_2388_445)">
<rect width="1080" height="1080" transform="matrix(1 0 0 -1 0 1080)" fill="#FF5500"/>
<path d="M268.13 1003L-163 760.139V174.808L379.87 -417L811 -174.033V411.192L457.061 211.813L268.13 417.776V1003Z" fill="#B31E00"/>
<g filter="url(#filter0_b_2388_445)">
<path d="M811.869 76.9999L1243 319.861L1243 905.191L700.13 1497L269 1254.03L269 668.808L622.939 868.187L811.87 662.224L811.869 76.9999Z" fill="white"/>
</g>
<g filter="url(#filter1_b_2388_445)">
<path fill-rule="evenodd" clip-rule="evenodd" d="M1187.07 258.429L1184.24 255.367C1177.81 248.562 1169.75 240.131 1159.96 231.662C1099.85 179.941 1028.03 150.451 954.573 143.079C943.718 141.982 932.825 141.378 921.894 141.264C921.062 52.757 892.127 -35.3721 835.429 -107.584C830.399 -113.936 820.224 -125.089 809.823 -135.978C801.766 -144.371 793.672 -152.537 787.582 -158.171C783.497 -162.67 552.396 -403.994 540.443 -416.471L539.914 -417L271.064 -135.978L268.227 -132.953C261.759 -126.148 253.59 -117.868 245.533 -107.584C188.722 -35.3721 159.938 52.7949 158.993 141.264C148.1 141.378 137.206 141.982 126.351 143.079C52.9735 150.451 -18.8535 179.941 -78.9551 231.699C-85.1204 236.879 -95.7487 247.503 -106.188 258.429C-114.131 266.671 -121.96 275.216 -127.369 281.643C-131.681 286.18 -375 540.473 -375 540.473L-106.15 821.495L-103.276 824.595C-96.8078 831.325 -88.7136 839.794 -78.9173 848.263C-18.8157 899.945 53.0113 929.435 126.389 936.77C137.244 937.866 148.138 938.471 159.031 938.584C159.976 1027.09 188.76 1115.26 245.571 1187.51C250.639 1193.9 260.7 1205.01 271.177 1215.94C279.12 1224.26 287.215 1232.39 293.342 1238.09L540.443 1496.47L540.935 1497L809.823 1215.94L812.773 1212.88C819.203 1206.15 827.335 1197.83 835.429 1187.47C892.127 1115.33 921.062 1027.13 921.894 938.66C932.787 938.547 943.68 937.942 954.573 936.845C1028.03 929.473 1099.82 899.983 1159.96 848.263C1166.01 842.97 1176.75 832.384 1187.07 821.533C1195.13 813.177 1202.88 804.746 1208.37 798.319C1212.72 793.82 1456 539.49 1456 539.49L1187.07 258.467V258.429ZM335.515 597.94C322.731 606.447 310.287 615.823 298.335 626.106C288.728 634.348 279.423 643.157 270.648 652.345C261.949 661.494 253.552 671.211 245.571 681.192C235.737 693.782 226.735 706.712 218.641 720.058C188.76 730.077 156.913 731.816 126.389 725.237C98.4752 719.226 71.6204 706.258 48.4346 686.296C46.43 684.594 42.4585 680.473 39.0922 676.844L35.6881 673.29C35.6881 673.29 -32.9239 601.494 -91.3612 540.473C-39.6565 486.408 19.7265 424.442 19.7265 424.442C19.7265 424.442 21.3151 422.362 22.3364 421.115C24.6814 418.392 30.128 412.495 35.7259 406.634C40.8699 401.152 46.1273 395.859 48.8506 393.288C71.9608 373.553 98.6643 360.698 126.427 354.687C156.95 348.109 188.836 349.81 218.678 359.829C226.773 373.213 235.775 386.105 245.609 398.657C253.552 408.676 261.986 418.43 270.724 427.58C279.423 436.653 288.728 445.538 298.335 453.78C310.287 464.026 322.731 473.402 335.515 481.984C347.089 519.603 347.089 560.246 335.515 597.902V597.94ZM400.458 25.6869C402.16 23.5697 406.094 19.4487 409.536 15.857L412.94 12.1896C412.94 12.1896 481.552 -59.531 540.027 -120.59L540.443 -120.136L650.926 -4.55902C650.926 -4.55902 652.931 -2.74426 654.179 -1.76126C656.713 0.620605 662.424 6.44293 667.984 12.2275C673.166 17.6718 678.348 23.116 680.807 26.065C720.408 76.6891 731.112 143.986 712.805 203.533C700.021 211.964 687.653 221.491 675.662 231.737C666.093 239.979 656.713 248.788 647.976 257.9C639.276 267.049 630.728 276.804 622.899 286.898C613.027 299.375 604.025 312.343 595.93 325.726C577.927 331.776 559.166 334.8 540.443 334.8C521.721 334.8 502.998 331.776 484.956 325.764C476.938 312.343 467.822 299.375 458.064 286.898C450.083 276.841 441.648 267.087 433.062 257.938C424.287 248.788 414.983 239.979 405.375 231.775C393.423 221.491 380.941 212.04 368.195 203.571C349.775 143.835 360.555 76.3866 400.496 25.7247L400.458 25.6869ZM680.466 1054.31C678.84 1056.35 674.906 1060.51 671.426 1064.11L667.946 1067.66C667.946 1067.66 599.41 1139.38 540.973 1200.48L540.481 1199.95L429.999 1084.48C429.999 1084.48 428.032 1082.63 426.859 1081.65C424.212 1079.27 418.538 1073.52 412.978 1067.66C407.72 1062.33 402.728 1056.85 400.156 1053.9C360.555 1003.16 349.964 935.976 368.195 876.429C380.979 867.922 393.423 858.471 405.375 848.301C414.907 839.983 424.325 831.136 432.949 822.062C441.724 812.913 450.159 803.158 458.026 793.102C467.86 780.587 476.9 767.657 485.032 754.236C502.998 748.224 521.721 745.237 540.443 745.237C559.166 745.237 577.927 748.262 595.93 754.273C604.025 767.657 613.027 780.587 622.823 793.102C630.766 803.121 639.276 812.913 647.976 822.024C656.713 831.098 666.093 839.983 675.587 848.225C687.615 858.508 699.983 867.922 712.843 876.429C731.15 936.127 720.483 1003.58 680.466 1054.31ZM1061.42 655.483C1061.42 655.483 1059.68 657.524 1058.7 658.848C1056.36 661.532 1050.83 667.43 1045.31 673.365C1040.09 678.772 1034.83 684.065 1032.04 686.674C1008.96 706.447 982.336 719.302 954.536 725.275C924.012 731.854 892.127 730.152 862.284 720.096C854.152 706.712 845.188 693.744 835.391 681.23C827.448 671.248 818.976 661.532 810.239 652.383C801.464 643.195 792.197 634.348 782.514 626.106C770.599 615.86 758.156 606.484 745.333 597.94C733.835 560.321 733.835 519.603 745.333 482.022C758.156 473.478 770.599 464.102 782.514 453.818C792.197 445.538 801.426 436.691 810.239 427.617C818.938 418.468 827.411 408.714 835.278 398.695C845.112 386.218 854.152 373.213 862.246 359.867C892.127 349.848 923.974 348.109 954.498 354.687C982.411 360.698 1009.23 373.666 1032.45 393.591C1034.49 395.33 1038.43 399.451 1041.79 403.043L1045.31 406.71C1045.31 406.71 1113.85 478.431 1172.32 539.49C1120.58 593.554 1061.39 655.52 1061.39 655.52L1061.42 655.483Z" fill="black" fill-opacity="0.7"/>
</g>
</g>
<defs>
<filter id="filter0_b_2388_445" x="229" y="37" width="1054" height="1500" filterUnits="userSpaceOnUse" color-interpolation-filters="sRGB">
<feFlood flood-opacity="0" result="BackgroundImageFix"/>
<feGaussianBlur in="BackgroundImageFix" stdDeviation="20"/>
<feComposite in2="SourceAlpha" operator="in" result="effect1_backgroundBlur_2388_445"/>
<feBlend mode="normal" in="SourceGraphic" in2="effect1_backgroundBlur_2388_445" result="shape"/>
</filter>
<filter id="filter1_b_2388_445" x="-415" y="-457" width="1911" height="1994" filterUnits="userSpaceOnUse" color-interpolation-filters="sRGB">
<feFlood flood-opacity="0" result="BackgroundImageFix"/>
<feGaussianBlur in="BackgroundImageFix" stdDeviation="20"/>
<feComposite in2="SourceAlpha" operator="in" result="effect1_backgroundBlur_2388_445"/>
<feBlend mode="normal" in="SourceGraphic" in2="effect1_backgroundBlur_2388_445" result="shape"/>
</filter>
<clipPath id="clip0_2388_445">
<rect width="1080" height="1080" fill="white" transform="matrix(1 0 0 -1 0 1080)"/>
</clipPath>
</defs>
</svg>
