<svg width="1080" height="1080" viewBox="0 0 1080 1080" fill="none" xmlns="http://www.w3.org/2000/svg">
<g clip-path="url(#clip0_3008_2445)">
<rect width="1080" height="1080" fill="#FF5500"/>
<path d="M1092.8 626.515C1096.5 569.324 1100.2 512.031 1104 454.84C968.652 334.802 833.305 344.162 697.957 389.832C758.18 292.012 843.273 219.289 991.878 210.032C954.059 166.933 916.24 123.835 878.523 80.7359C697.957 91.6391 608.856 194.191 545.344 322.253C518.829 210.443 527.668 98.7365 626.224 -13.0731C569.084 -16.776 511.841 -20.4793 454.701 -24.2852C334.769 111.182 344.121 246.65 389.751 382.118C292.017 321.841 219.359 236.673 210.109 87.9362C167.049 125.789 123.988 163.641 80.9278 201.391C91.9241 382.632 194.797 471.71 323.259 535.38C207.54 563.77 91.7187 555.747 -24 453.092C-20.3003 511.517 -16.6006 569.838 -12.7981 628.263C118.953 744.599 250.703 735.959 382.351 691.729C320.587 792.944 233.232 868.546 79.6946 877.803C123.577 916.479 167.46 955.052 211.342 993.728C386.77 982.824 473.816 883.358 535.684 758.794C563.534 874.1 555.107 989.408 453.057 1104.71C511.43 1101.01 569.7 1097.31 628.074 1093.5C744.306 961.635 735.673 829.768 691.482 698.003C792.608 759.822 868.143 847.254 877.393 1000.93C916.034 957.007 954.573 913.085 993.214 869.164C982.321 694.095 883.559 606.972 759.619 545.152C870.713 519.026 981.807 528.283 1092.9 626.412L1092.8 626.515Z" fill="white"/>
</g>
<defs>
<clipPath id="clip0_3008_2445">
<rect width="1080" height="1080" fill="white"/>
</clipPath>
</defs>
</svg>
