<svg width="1080" height="1080" viewBox="0 0 1080 1080" fill="none" xmlns="http://www.w3.org/2000/svg">
<g clip-path="url(#clip0_3170_9014)">
<rect width="1080" height="1080" fill="#FF5500"/>
<path d="M1080 0C853.061 324.211 853.061 755.789 1080 1080C755.789 853.061 324.211 853.061 0 1080C226.939 755.789 226.939 324.211 0 0C324.211 226.939 755.789 226.939 1080 0Z" fill="#9A2500"/>
<path d="M539.5 931.684C3.70468 931.684 -416 759.877 -416 540.5C-416 321.123 3.70468 149.315 539.5 149.315C1075.3 149.315 1495 321.123 1495 540.5C1495 759.877 1075.3 931.684 539.5 931.684ZM539.5 202.228C294.566 202.228 64.7131 239.532 -107.783 307.207C-270.066 370.914 -363.087 455.945 -363.087 540.5C-363.087 625.055 -270.013 710.086 -107.783 773.793C64.6602 841.521 294.566 878.772 539.5 878.772C784.433 878.772 1014.29 841.468 1186.78 773.793C1349.07 710.086 1442.09 625.055 1442.09 540.5C1442.09 455.945 1349.01 370.914 1186.78 307.207C1014.34 239.479 784.433 202.228 539.5 202.228Z" fill="white"/>
<path d="M1057.09 1272.5C856.289 1272.5 548.442 1102.65 262.872 817.075C-115.984 438.272 -291.232 19.9964 -136.144 -135.144C-59.05 -212.238 84.4496 -210.651 267.898 -130.646C443.622 -53.9757 638.341 86.1375 816.075 263.872C993.81 441.606 1133.92 636.325 1210.59 812.048C1290.6 995.497 1292.19 1139 1215.09 1216.09C1176.89 1254.29 1122.65 1272.44 1057.04 1272.44L1057.09 1272.5ZM22.277 -138.795C-29.8951 -138.795 -71.2729 -125.143 -98.7346 -97.6817C-158.526 -37.8902 -152.864 88.0423 -83.1254 247.786C-9.04739 417.636 127.15 606.535 300.334 779.719C473.518 952.902 662.417 1089.1 832.267 1163.18C992.063 1232.86 1118 1238.53 1177.73 1178.79C1237.53 1119 1231.86 993.063 1162.13 833.319C1088.05 663.469 951.85 474.57 778.666 301.387C605.482 128.203 416.583 -7.99448 246.733 -82.0724C160.274 -119.799 83.7617 -138.742 22.2241 -138.742L22.277 -138.795Z" fill="white"/>
<path d="M539.5 1496C320.123 1496 148.315 1076.3 148.315 540.5C148.315 4.70468 320.123 -415 539.5 -415C758.877 -415 930.684 4.70468 930.684 540.5C930.684 1076.3 758.877 1496 539.5 1496ZM539.5 -362.087C454.945 -362.087 369.914 -269.013 306.207 -106.783C238.479 65.6602 201.228 295.566 201.228 540.5C201.228 785.433 238.532 1015.29 306.207 1187.78C369.914 1350.07 454.945 1443.09 539.5 1443.09C624.055 1443.09 709.086 1350.01 772.793 1187.78C840.521 1015.34 877.772 785.433 877.772 540.5C877.772 295.566 840.468 65.7131 772.793 -106.783C709.086 -269.066 624.055 -362.087 539.5 -362.087Z" fill="white"/>
<path d="M22.0653 1272.81C-44.5519 1272.81 -98.3113 1253.92 -136.144 1216.14C-213.238 1139.05 -211.651 995.55 -131.646 812.102C-54.9757 636.378 85.1375 441.659 262.872 263.925C641.728 -114.984 1060.06 -290.232 1215.14 -135.144C1370.23 19.9435 1194.98 438.272 816.128 817.128C638.394 994.862 443.675 1134.98 267.951 1211.65C174.454 1252.44 91.3282 1272.87 22.0653 1272.87V1272.81ZM1056.72 -138.795C995.185 -138.795 918.673 -119.852 832.214 -82.1254C662.364 -8.04739 473.465 128.15 300.281 301.334C127.097 474.518 -9.10031 663.417 -83.1783 833.267C-152.864 993.064 -158.526 1119 -98.7876 1178.73C-38.9961 1238.53 86.9364 1232.86 246.68 1163.13C416.53 1089.05 605.429 952.85 778.613 779.666C951.797 606.482 1087.99 417.583 1162.07 247.733C1231.76 87.9365 1237.42 -37.9961 1177.68 -97.7347C1150.22 -125.196 1108.84 -138.848 1056.67 -138.848L1056.72 -138.795Z" fill="white"/>
</g>
<defs>
<clipPath id="clip0_3170_9014">
<rect width="1080" height="1080" fill="white"/>
</clipPath>
</defs>
</svg>
