<svg width="2260" height="1080" viewBox="0 0 2260 1080" fill="none" xmlns="http://www.w3.org/2000/svg">
<g clip-path="url(#clip0_1983_128)">
<rect width="2260" height="1080" fill="#FF5500"/>
<path d="M1028.43 1732.48L-221.1 1732.48C-221.508 1724.08 -221.702 1715.37 -221.702 1706.31C-221.702 1597.14 -192.631 1540.55 -166.994 1490.65C-142.523 1443.02 -119.409 1397.97 -119.409 1307.98C-119.409 1217.99 -142.523 1173 -166.994 1125.37C-192.631 1075.46 -221.702 1018.88 -221.702 909.703C-221.702 800.529 -192.631 744.043 -166.994 694.088C-142.523 646.46 -119.409 601.465 -119.409 511.474C-119.409 421.482 -142.523 376.486 -166.994 328.859C-192.631 278.953 -221.702 222.367 -221.702 113.193C-221.702 4.01874 -192.631 -52.4655 -166.994 -102.421C-142.522 -150.049 -119.409 -195.045 -119.409 -285.036C-119.409 -375.028 -142.522 -420.024 -166.994 -467.702C-192.631 -517.557 -221.702 -574.142 -221.702 -683.316C-221.702 -691.516 -221.546 -699.462 -221.216 -707.105L1028.29 -707.104C1027.9 -699.512 1027.71 -691.617 1027.71 -683.316C1027.71 -593.325 1050.82 -548.33 1075.31 -500.702C1100.93 -450.747 1130 -394.21 1130 -285.036C1130 -175.862 1100.93 -119.326 1075.31 -69.421C1050.82 -21.7934 1027.71 23.252 1027.71 113.193C1027.71 203.133 1050.82 248.18 1075.31 295.858C1100.93 345.764 1130 402.35 1130 511.474C1130 620.597 1100.93 677.183 1075.31 727.088C1050.82 774.766 1027.71 819.762 1027.71 909.703C1027.71 999.644 1050.82 1044.74 1075.31 1092.37C1100.93 1142.32 1130 1198.86 1130 1307.98C1130 1417.11 1100.93 1473.74 1075.31 1523.65C1050.82 1571.28 1027.71 1616.32 1027.71 1706.31C1027.71 1715.47 1027.94 1724.18 1028.43 1732.48Z" fill="white"/>
</g>
<defs>
<clipPath id="clip0_1983_128">
<rect width="2260" height="1080" fill="white"/>
</clipPath>
</defs>
</svg>
