<svg width="2260" height="1080" viewBox="0 0 2260 1080" fill="none" xmlns="http://www.w3.org/2000/svg">
<g clip-path="url(#clip0_1969_7292)">
<rect width="2260" height="1080" fill="#FF5500"/>
<path d="M1130 1088.05C1130 986.369 1088.16 892.026 1016.71 814.026C1088.16 736.076 1130 641.684 1130 540C1130 438.317 1088.16 343.974 1016.71 265.974C1088.16 188.023 1130 93.6312 1130 -8.05203C1130 -275.913 839.899 -493.029 482.067 -493.029C124.235 -493.029 -165.866 -275.913 -165.866 -8.05209C-165.866 93.6312 -124.021 187.975 -52.5729 265.974C-124.021 343.925 -165.866 438.317 -165.866 540C-165.866 641.684 -124.021 736.027 -52.5729 814.026C-124.021 891.977 -165.866 986.369 -165.866 1088.05C-165.866 1355.91 124.235 1573.03 482.067 1573.03C839.899 1573.03 1130 1355.86 1130 1088.05Z" fill="white"/>
</g>
<defs>
<clipPath id="clip0_1969_7292">
<rect width="2260" height="1080" fill="white"/>
</clipPath>
</defs>
</svg>
