<svg width="1080" height="1080" viewBox="0 0 1080 1080" fill="none" xmlns="http://www.w3.org/2000/svg">
<rect width="1080" height="1080" fill="#FF5500"/>
<path d="M808.633 72.7148H271.367C161.812 72.7148 73 161.527 73 271.082V808.348C73 917.903 161.812 1006.71 271.367 1006.71H808.633C918.188 1006.71 1007 917.903 1007 808.348V271.082C1007 161.527 918.188 72.7148 808.633 72.7148Z" fill="white"/>
<path d="M1007 539.715C589.037 512.634 567.081 490.678 540 72.7148C512.919 490.678 490.963 512.634 73 539.715C490.963 566.796 512.919 588.751 540 1006.71C567.081 588.751 589.037 566.796 1007 539.715Z" fill="#FF5500"/>
</svg>
